<svg width="36" height="30" viewBox="0 0 36 30" fill="none" xmlns="http://www.w3.org/2000/svg">
<path d="M2.72584 12.9741C1.31831 10.781 1.19928 8.50351 1.93192 6.51402C2.65904 4.53956 4.21386 2.87348 6.12019 1.83515C8.02859 0.795689 10.322 0.367619 12.5442 0.915078C14.6029 1.42226 16.5576 2.75631 18.0636 5.13033C19.5366 2.98725 21.4065 1.73945 23.3735 1.21273C25.6211 0.610855 27.9543 0.961305 29.9072 1.92581C31.8574 2.88898 33.462 4.48159 34.2265 6.40687C34.9979 8.34926 34.8986 10.5962 33.4907 12.79C30.814 16.9606 26.9779 20.883 23.8271 23.7531C22.2489 25.1908 20.8368 26.3696 19.8188 27.1894C19.3097 27.5994 18.8989 27.9198 18.6148 28.1381C18.4727 28.2473 18.3623 28.331 18.2872 28.3875L18.2013 28.4519L18.179 28.4685L18.1731 28.4728L18.1716 28.474C17.9494 28.638 17.6357 28.5914 17.4716 28.3693C17.3076 28.1471 17.3547 27.8341 17.5769 27.67L17.5832 27.6654L17.6036 27.6501L17.6858 27.5886L17.7101 27.5702C17.4249 27.3742 17.0307 27.0985 16.5507 26.7507C15.5165 26.0013 14.083 24.9163 12.4832 23.5723C9.28966 20.8893 5.40745 17.1524 2.72584 12.9741Z" fill="#FD2C2C"/>
<path d="M18.1716 28.474L18.1731 28.4728L18.179 28.4685L18.2013 28.4519L18.2872 28.3875C18.3623 28.331 18.4727 28.2473 18.6148 28.1381C18.8989 27.9198 19.3097 27.5994 19.8188 27.1894C20.8368 26.3696 22.2489 25.1908 23.8271 23.7531C26.9779 20.883 30.814 16.9606 33.4907 12.79C34.8986 10.5962 34.9979 8.34926 34.2265 6.40687C33.462 4.48159 31.8574 2.88898 29.9072 1.92581C27.9543 0.961305 25.6211 0.610855 23.3735 1.21273C21.4065 1.73945 19.5366 2.98725 18.0636 5.13033C16.5576 2.75631 14.6029 1.42226 12.5442 0.915078C10.322 0.367619 8.02859 0.795689 6.12019 1.83515C4.21386 2.87348 2.65904 4.53956 1.93192 6.51402C1.19928 8.50351 1.31831 10.781 2.72584 12.9741C5.40745 17.1524 9.28966 20.8893 12.4832 23.5723C14.083 24.9163 15.5165 26.0013 16.5507 26.7507C17.0307 27.0985 17.4249 27.3742 17.7101 27.5702C17.7016 27.5767 17.6935 27.5828 17.6858 27.5886L17.6036 27.6501L17.5832 27.6654L17.5769 27.67C17.3547 27.8341 17.3076 28.1471 17.4716 28.3693C17.6357 28.5914 17.9494 28.638 18.1716 28.474ZM18.1716 28.474C18.1716 28.474 18.1709 28.4745 17.8739 28.0723L18.1716 28.474Z" stroke="#191919"/>
</svg>
