<svg width="34" height="29" viewBox="0 0 34 29" fill="none" xmlns="http://www.w3.org/2000/svg">
<path fill-rule="evenodd" clip-rule="evenodd" d="M1.72583 12.9742C0.318306 10.7811 0.199269 8.50355 0.931917 6.51407C1.65903 4.53961 3.21385 2.87353 5.12019 1.83519C7.02859 0.795734 9.32196 0.367663 11.5442 0.915123C13.6028 1.4223 15.5576 2.75636 17.0636 5.13038C18.5366 2.9873 20.4065 1.73949 22.3734 1.21278C24.6211 0.610899 26.9543 0.96135 28.9072 1.92586C30.8574 2.88902 32.462 4.48163 33.2265 6.40691C33.9979 8.34931 33.8986 10.5962 32.4907 12.79C29.814 16.9606 25.9779 20.883 22.8271 23.7532C21.2489 25.1908 19.8368 26.3696 18.8188 27.1895C18.3097 27.5995 17.8988 27.9199 17.6148 28.1382C17.4727 28.2474 17.3623 28.331 17.2872 28.3876L17.2013 28.452L17.179 28.4685L17.1731 28.4729L17.1715 28.474L17.1711 28.4744C17.171 28.4745 17.1709 28.4745 16.8739 28.0723L17.1709 28.4745C16.9487 28.6386 16.6357 28.5915 16.4716 28.3693C16.3076 28.1472 16.3547 27.8341 16.5769 27.6701L16.5771 27.6699L16.5782 27.6691L16.5832 27.6654L16.6036 27.6502L16.6858 27.5886C16.6935 27.5828 16.7016 27.5767 16.7101 27.5703C16.4249 27.3743 16.0307 27.0986 15.5507 26.7508C14.5165 26.0013 13.083 24.9163 11.4832 23.5723C8.28965 20.8893 4.40744 17.1525 1.72583 12.9742ZM17.5426 26.9274C17.5635 26.9109 17.5847 26.8942 17.6062 26.8773C17.7822 26.7384 17.9781 26.5826 18.1916 26.4106C19.1972 25.6008 20.5934 24.4353 22.1537 23.0139C25.2799 20.1662 29.0418 16.3124 31.6491 12.2499C32.8831 10.3271 32.9495 8.41861 32.2971 6.776C31.638 5.11627 30.2296 3.69427 28.4644 2.82246C26.7019 1.952 24.6175 1.6471 22.6321 2.17874C20.6568 2.70771 18.7382 4.07553 17.3102 6.62808C17.1754 6.86907 16.8707 6.95513 16.6297 6.82031C16.3887 6.68548 16.3026 6.38082 16.4375 6.13983C16.4485 6.12011 16.4596 6.10046 16.4707 6.08087C15.0538 3.63455 13.199 2.3527 11.305 1.88609C9.35842 1.40654 7.31979 1.77584 5.59851 2.71337C3.87517 3.65203 2.50264 5.14257 1.87031 6.85964C1.80046 7.04931 1.73951 7.24205 1.68804 7.43747C1.27767 8.99572 1.47052 10.7249 2.56741 12.434C5.16976 16.4889 8.96425 20.15 12.1264 22.8066C13.7045 24.1324 15.1186 25.2027 16.1375 25.941C16.6468 26.3101 17.0571 26.5961 17.3394 26.7893C17.417 26.8424 17.4849 26.8885 17.5426 26.9274Z" fill="#191919"/>
</svg>
