<svg width="26" height="26" viewBox="0 0 26 26" fill="none" xmlns="http://www.w3.org/2000/svg">
<path fill-rule="evenodd" clip-rule="evenodd" d="M16.2171 16.3216C16.3335 16.205 16.4458 16.0858 16.554 15.9643L17.2622 16.6724C17.2622 16.6725 17.2622 16.6725 17.2622 16.6725L25.4033 24.813C25.5986 25.0082 25.5986 25.3248 25.4034 25.5201C25.2081 25.7153 24.8915 25.7154 24.6963 25.5201L16.5551 17.3796C12.8258 20.7415 7.07432 20.6269 3.4828 17.0357C-0.227328 13.3259 -0.227575 7.31081 3.48225 3.60068C7.19208 -0.109456 13.2071 -0.109702 16.9173 3.60013C20.1804 6.86301 20.5738 11.9091 18.0971 15.6019L17.3746 14.8794C19.4693 11.5915 19.0812 7.178 16.2102 4.30726C12.8906 0.987942 7.50871 0.988162 4.18939 4.30775C0.870069 7.62735 0.87029 13.0092 4.18988 16.3286C7.5073 19.6457 12.8843 19.6477 16.2042 16.3346C16.2063 16.3324 16.2084 16.3302 16.2106 16.3281C16.2128 16.3259 16.2149 16.3238 16.2171 16.3216Z" fill="#191919"/>
</svg>
