<svg width="29" height="36" viewBox="0 0 29 36" fill="none" xmlns="http://www.w3.org/2000/svg">
<path fill-rule="evenodd" clip-rule="evenodd" d="M23 9.5C23 14.1944 19.1944 18 14.5 18C9.80558 18 6 14.1944 6 9.5C6 4.80558 9.80558 1 14.5 1C19.1944 1 23 4.80558 23 9.5ZM24 9.5C24 14.7467 19.7467 19 14.5 19C9.25329 19 5 14.7467 5 9.5C5 4.25329 9.25329 0 14.5 0C19.7467 0 24 4.25329 24 9.5ZM1.42191 35.2683C4.44438 30.5155 6.66924 27.1831 8.68924 25.0348C10.6923 22.9045 12.4363 22 14.5 22C16.2792 22 18.0845 23.1272 20.219 25.4276C22.3426 27.7163 24.6966 31.0588 27.5874 35.2824L28.4126 34.7176C25.5314 30.5079 23.1354 27.1004 20.952 24.7474C18.7796 22.4061 16.7208 21 14.5 21C12.0637 21 10.0743 22.1019 7.96071 24.3498C5.86402 26.5796 3.58888 29.9972 0.578087 34.7317L1.42191 35.2683Z" fill="#191919"/>
</svg>
